<svg xmlns="http://www.w3.org/2000/svg" version="1.1" xmlns:xlink="http://www.w3.org/1999/xlink" width="1.75in" height="2in"><svg width="1.75in" height="2in" viewBox="0 0 44.450001 50.800001" version="1.1" id="SvgjsSvg1145" inkscape:version="1.3.2 (091e20e, 2023-11-25)" sodipodi:docname="cobrar.svg" xmlns:inkscape="http://www.inkscape.org/namespaces/inkscape" xmlns:sodipodi="http://sodipodi.sourceforge.net/DTD/sodipodi-0.dtd" xmlns="http://www.w3.org/2000/svg" xmlns:svg="http://www.w3.org/2000/svg" xmlns:rdf="http://www.w3.org/1999/02/22-rdf-syntax-ns#" xmlns:cc="http://creativecommons.org/ns#" xmlns:dc="http://purl.org/dc/elements/1.1/">
  <defs id="SvgjsDefs1144">
    <marker style="overflow:visible" id="SvgjsMarker1143" refX="0.0" refY="0.0" orient="auto" inkscape:stockid="DotM" inkscape:isstock="true" viewBox="0 0 4.53333335 4.53333335" markerWidth="4.53333335" markerHeight="4.53333335" preserveAspectRatio="xMidYMid">
      <path transform="scale(0.4) translate(7.4, 1)" style="fill-rule:evenodd;stroke:#000000;stroke-width:1pt;stroke-opacity:1;fill:#000000;fill-opacity:1" d="M -2.5,-1.0 C -2.5,1.7600000 -4.7400000,4.0 -7.5,4.0 C -10.260000,4.0 -12.5,1.7600000 -12.5,-1.0 C -12.5,-3.7600000 -10.260000,-6.0 -7.5,-6.0 C -4.7400000,-6.0 -2.5,-3.7600000 -2.5,-1.0 z " id="SvgjsPath1142"></path>
    </marker>
    <marker style="overflow:visible" id="SvgjsMarker1141" refX="0.0" refY="0.0" orient="auto" inkscape:stockid="DotM" inkscape:isstock="true" inkscape:collect="always">
      <path transform="scale(0.4) translate(7.4, 1)" style="fill-rule:evenodd;stroke:#000000;stroke-width:1pt;stroke-opacity:1;fill:#000000;fill-opacity:1" d="M -2.5,-1.0 C -2.5,1.7600000 -4.7400000,4.0 -7.5,4.0 C -10.260000,4.0 -12.5,1.7600000 -12.5,-1.0 C -12.5,-3.7600000 -10.260000,-6.0 -7.5,-6.0 C -4.7400000,-6.0 -2.5,-3.7600000 -2.5,-1.0 z " id="SvgjsPath1140"></path>
    </marker>
    <marker style="overflow:visible" id="SvgjsMarker1139" refX="0.0" refY="0.0" orient="auto" inkscape:stockid="DotM" inkscape:isstock="true" inkscape:collect="always">
      <path transform="scale(0.4) translate(7.4, 1)" style="fill-rule:evenodd;stroke:#000000;stroke-width:1pt;stroke-opacity:1;fill:#000000;fill-opacity:1" d="M -2.5,-1.0 C -2.5,1.7600000 -4.7400000,4.0 -7.5,4.0 C -10.260000,4.0 -12.5,1.7600000 -12.5,-1.0 C -12.5,-3.7600000 -10.260000,-6.0 -7.5,-6.0 C -4.7400000,-6.0 -2.5,-3.7600000 -2.5,-1.0 z " id="SvgjsPath1138"></path>
    </marker>
    <marker style="overflow:visible" id="SvgjsMarker1137" refX="0.0" refY="0.0" orient="auto" inkscape:stockid="DotM" inkscape:isstock="true" inkscape:collect="always">
      <path transform="scale(0.4) translate(7.4, 1)" style="fill-rule:evenodd;stroke:#000000;stroke-width:1pt;stroke-opacity:1;fill:#000000;fill-opacity:1" d="M -2.5,-1.0 C -2.5,1.7600000 -4.7400000,4.0 -7.5,4.0 C -10.260000,4.0 -12.5,1.7600000 -12.5,-1.0 C -12.5,-3.7600000 -10.260000,-6.0 -7.5,-6.0 C -4.7400000,-6.0 -2.5,-3.7600000 -2.5,-1.0 z " id="SvgjsPath1136"></path>
    </marker>
    <marker style="overflow:visible" id="SvgjsMarker1135" refX="0.0" refY="0.0" orient="auto" inkscape:stockid="DotM" inkscape:isstock="true" inkscape:collect="always">
      <path transform="scale(0.4) translate(7.4, 1)" style="fill-rule:evenodd;stroke:#000000;stroke-width:1pt;stroke-opacity:1;fill:#000000;fill-opacity:1" d="M -2.5,-1.0 C -2.5,1.7600000 -4.7400000,4.0 -7.5,4.0 C -10.260000,4.0 -12.5,1.7600000 -12.5,-1.0 C -12.5,-3.7600000 -10.260000,-6.0 -7.5,-6.0 C -4.7400000,-6.0 -2.5,-3.7600000 -2.5,-1.0 z " id="SvgjsPath1134"></path>
    </marker>
    <marker style="overflow:visible" id="SvgjsMarker1133" refX="0.0" refY="0.0" orient="auto" inkscape:stockid="DotM" inkscape:isstock="true" inkscape:collect="always">
      <path transform="scale(0.4) translate(7.4, 1)" style="fill-rule:evenodd;stroke:#000000;stroke-width:1pt;stroke-opacity:1;fill:#000000;fill-opacity:1" d="M -2.5,-1.0 C -2.5,1.7600000 -4.7400000,4.0 -7.5,4.0 C -10.260000,4.0 -12.5,1.7600000 -12.5,-1.0 C -12.5,-3.7600000 -10.260000,-6.0 -7.5,-6.0 C -4.7400000,-6.0 -2.5,-3.7600000 -2.5,-1.0 z " id="SvgjsPath1132"></path>
    </marker>
    <marker style="overflow:visible" id="SvgjsMarker1131" refX="0.0" refY="0.0" orient="auto" inkscape:stockid="DotM" inkscape:isstock="true" inkscape:collect="always">
      <path transform="scale(0.4) translate(7.4, 1)" style="fill-rule:evenodd;stroke:#000000;stroke-width:1pt;stroke-opacity:1;fill:#000000;fill-opacity:1" d="M -2.5,-1.0 C -2.5,1.7600000 -4.7400000,4.0 -7.5,4.0 C -10.260000,4.0 -12.5,1.7600000 -12.5,-1.0 C -12.5,-3.7600000 -10.260000,-6.0 -7.5,-6.0 C -4.7400000,-6.0 -2.5,-3.7600000 -2.5,-1.0 z " id="SvgjsPath1130"></path>
    </marker>
    <marker style="overflow:visible" id="SvgjsMarker1129" refX="0.0" refY="0.0" orient="auto" inkscape:stockid="DotM" inkscape:isstock="true" inkscape:collect="always">
      <path transform="scale(0.4) translate(7.4, 1)" style="fill-rule:evenodd;stroke:#000000;stroke-width:1pt;stroke-opacity:1;fill:#000000;fill-opacity:1" d="M -2.5,-1.0 C -2.5,1.7600000 -4.7400000,4.0 -7.5,4.0 C -10.260000,4.0 -12.5,1.7600000 -12.5,-1.0 C -12.5,-3.7600000 -10.260000,-6.0 -7.5,-6.0 C -4.7400000,-6.0 -2.5,-3.7600000 -2.5,-1.0 z " id="SvgjsPath1128"></path>
    </marker>
    <marker style="overflow:visible" id="SvgjsMarker1127" refX="0.0" refY="0.0" orient="auto" inkscape:stockid="DotS" inkscape:isstock="true">
      <path transform="scale(0.2) translate(7.4, 1)" style="fill-rule:evenodd;stroke:#000000;stroke-width:1pt;stroke-opacity:1;fill:#000000;fill-opacity:1" d="M -2.5,-1.0 C -2.5,1.7600000 -4.7400000,4.0 -7.5,4.0 C -10.260000,4.0 -12.5,1.7600000 -12.5,-1.0 C -12.5,-3.7600000 -10.260000,-6.0 -7.5,-6.0 C -4.7400000,-6.0 -2.5,-3.7600000 -2.5,-1.0 z " id="SvgjsPath1126"></path>
    </marker>
    <marker style="overflow:visible" id="SvgjsMarker1125" refX="0.0" refY="0.0" orient="auto" inkscape:stockid="Arrow2Sstart" inkscape:isstock="true">
      <path transform="scale(0.3) translate(-2.3,0)" d="M 8.7185878,4.0337352 L -2.2072895,0.016013256 L 8.7185884,-4.0017078 C 6.9730900,-1.6296469 6.9831476,1.6157441 8.7185878,4.0337352 z " style="fill-rule:evenodd;stroke-width:0.625;stroke-linejoin:round;stroke:#000000;stroke-opacity:1;fill:#000000;fill-opacity:1" id="SvgjsPath1124"></path>
    </marker>
    <marker style="overflow:visible" id="SvgjsMarker1123" refX="0.0" refY="0.0" orient="auto" inkscape:stockid="DotM" inkscape:isstock="true">
      <path transform="scale(0.4) translate(7.4, 1)" style="fill-rule:evenodd;stroke:#000000;stroke-width:1pt;stroke-opacity:1;fill:#000000;fill-opacity:1" d="M -2.5,-1.0 C -2.5,1.7600000 -4.7400000,4.0 -7.5,4.0 C -10.260000,4.0 -12.5,1.7600000 -12.5,-1.0 C -12.5,-3.7600000 -10.260000,-6.0 -7.5,-6.0 C -4.7400000,-6.0 -2.5,-3.7600000 -2.5,-1.0 z " id="SvgjsPath1122"></path>
    </marker>
    <marker style="overflow:visible" id="SvgjsMarker1121" refX="0" refY="0" orient="auto" inkscape:stockid="DotM" inkscape:isstock="true" inkscape:collect="always">
      <path transform="matrix(0.4,0,0,0.4,2.96,0.4)" style="fill:#000000;fill-opacity:1;fill-rule:evenodd;stroke:#000000;stroke-width:1pt;stroke-opacity:1" d="m -2.5,-1 c 0,2.76 -2.24,5 -5,5 -2.76,0 -5,-2.24 -5,-5 0,-2.76 2.24,-5 5,-5 2.76,0 5,2.24 5,5 z" id="SvgjsPath1120"></path>
    </marker>
    <marker style="overflow:visible" id="SvgjsMarker1119" refX="0" refY="0" orient="auto" inkscape:stockid="DotM" inkscape:isstock="true" inkscape:collect="always">
      <path transform="matrix(0.4,0,0,0.4,2.96,0.4)" style="fill:#000000;fill-opacity:1;fill-rule:evenodd;stroke:#000000;stroke-width:1pt;stroke-opacity:1" d="m -2.5,-1 c 0,2.76 -2.24,5 -5,5 -2.76,0 -5,-2.24 -5,-5 0,-2.76 2.24,-5 5,-5 2.76,0 5,2.24 5,5 z" id="SvgjsPath1118"></path>
    </marker>
    <marker style="overflow:visible" id="SvgjsMarker1117" refX="0" refY="0" orient="auto" inkscape:stockid="DotM" inkscape:isstock="true" inkscape:collect="always">
      <path transform="matrix(0.4,0,0,0.4,2.96,0.4)" style="fill:#000000;fill-opacity:1;fill-rule:evenodd;stroke:#000000;stroke-width:1pt;stroke-opacity:1" d="m -2.5,-1 c 0,2.76 -2.24,5 -5,5 -2.76,0 -5,-2.24 -5,-5 0,-2.76 2.24,-5 5,-5 2.76,0 5,2.24 5,5 z" id="SvgjsPath1116"></path>
    </marker>
    <marker style="overflow:visible" id="SvgjsMarker1115" refX="0" refY="0" orient="auto" inkscape:stockid="DotM" inkscape:isstock="true" inkscape:collect="always">
      <path transform="matrix(0.4,0,0,0.4,2.96,0.4)" style="fill:#000000;fill-opacity:1;fill-rule:evenodd;stroke:#000000;stroke-width:1pt;stroke-opacity:1" d="m -2.5,-1 c 0,2.76 -2.24,5 -5,5 -2.76,0 -5,-2.24 -5,-5 0,-2.76 2.24,-5 5,-5 2.76,0 5,2.24 5,5 z" id="SvgjsPath1114"></path>
    </marker>
    <marker style="overflow:visible" id="SvgjsMarker1113" refX="0" refY="0" orient="auto" inkscape:stockid="DotM" inkscape:isstock="true" inkscape:collect="always">
      <path transform="matrix(0.4,0,0,0.4,2.96,0.4)" style="fill:#000000;fill-opacity:1;fill-rule:evenodd;stroke:#000000;stroke-width:1pt;stroke-opacity:1" d="m -2.5,-1 c 0,2.76 -2.24,5 -5,5 -2.76,0 -5,-2.24 -5,-5 0,-2.76 2.24,-5 5,-5 2.76,0 5,2.24 5,5 z" id="SvgjsPath1112"></path>
    </marker>
    <marker style="overflow:visible" id="SvgjsMarker1111" refX="0" refY="0" orient="auto" inkscape:stockid="DotM" inkscape:isstock="true" inkscape:collect="always">
      <path transform="matrix(0.4,0,0,0.4,2.96,0.4)" style="fill:#000000;fill-opacity:1;fill-rule:evenodd;stroke:#000000;stroke-width:1pt;stroke-opacity:1" d="m -2.5,-1 c 0,2.76 -2.24,5 -5,5 -2.76,0 -5,-2.24 -5,-5 0,-2.76 2.24,-5 5,-5 2.76,0 5,2.24 5,5 z" id="SvgjsPath1110"></path>
    </marker>
    <marker style="overflow:visible" id="SvgjsMarker1109" refX="0" refY="0" orient="auto" inkscape:stockid="DotM" inkscape:isstock="true" viewBox="0 0 4.5333334 4.5333334" markerWidth="4.5333333" markerHeight="4.5333333" preserveAspectRatio="xMidYMid">
      <path transform="matrix(0.4,0,0,0.4,2.96,0.4)" style="fill:#000000;fill-opacity:1;fill-rule:evenodd;stroke:#000000;stroke-width:1pt;stroke-opacity:1" d="m -2.5,-1 c 0,2.76 -2.24,5 -5,5 -2.76,0 -5,-2.24 -5,-5 0,-2.76 2.24,-5 5,-5 2.76,0 5,2.24 5,5 z" id="SvgjsPath1108"></path>
    </marker>
  </defs>
  <sodipodi:namedview id="SvgjsSodipodi:namedview1107" pagecolor="#ffffff" bordercolor="#666666" borderopacity="1.0" inkscape:pageopacity="0.0" inkscape:pageshadow="2" inkscape:zoom="4.0922576" inkscape:cx="113.62921" inkscape:cy="38.365131" inkscape:document-units="mm" inkscape:current-layer="layer1" inkscape:document-rotation="0" showgrid="false" units="in" inkscape:window-width="1920" inkscape:window-height="1016" inkscape:window-x="0" inkscape:window-y="27" inkscape:window-maximized="1" inkscape:showpageshadow="2" inkscape:pagecheckerboard="0" inkscape:deskcolor="#d1d1d1"></sodipodi:namedview>
  <metadata id="SvgjsMetadata1106">
    <rdf:RDF>
      <cc:Work rdf:about="">
        <dc:format>image/svg+xml</dc:format>
        <dc:type rdf:resource="http://purl.org/dc/dcmitype/StillImage"></dc:type>
        <dc:title></dc:title>
      </cc:Work>
    </rdf:RDF>
  </metadata>
  <g inkscape:label="Layer 1" inkscape:groupmode="layer" id="SvgjsG1105">
    <path id="SvgjsPath1104" style="fill:none;stroke:#000000;stroke-width:2.4;stroke-linecap:butt;stroke-linejoin:miter;stroke-miterlimit:4;stroke-dasharray:none;stroke-opacity:1;marker-start:url(#marker2648)" d="M 28.826174 85.336602 L 1.1990604 69.551732 " transform="scale(0.26458333)"></path>
    <path id="SvgjsPath1103" style="fill:none;stroke:#000000;stroke-width:0.635;stroke-linecap:butt;stroke-linejoin:miter;stroke-miterlimit:4;stroke-dasharray:none;stroke-opacity:1;marker-start:url(#marker2648-2)" d="m 36.865281,17.519483 7.309674,-4.176414"></path>
    <path id="SvgjsPath1102" style="fill:none;stroke:#000000;stroke-width:2.4;stroke-linecap:butt;stroke-linejoin:miter;stroke-miterlimit:4;stroke-dasharray:none;stroke-opacity:1" d="M 83.999842,174.28994 56.453288,160.55109" transform="scale(0.26458333)" sodipodi:nodetypes="cc"></path>
    <path id="SvgjsPath1101" style="fill:none;stroke:#000000;stroke-width:2.4;stroke-miterlimit:4;stroke-dasharray:none" d="M 36.484375 28.533203 L 1.1992188 48.693359 L 1.1992188 143.30664 L 84 190.61523 L 166.80078 143.30664 L 166.80078 48.693359 L 130.98828 28.232422 A 54.800017 54.800017 0 0 1 130.82227 28.517578 A 54.800017 54.800017 0 0 1 130.50195 29.052734 A 54.800017 54.800017 0 0 1 130.17578 29.582031 A 54.800017 54.800017 0 0 1 129.84375 30.109375 A 54.800017 54.800017 0 0 1 129.50586 30.632812 A 54.800017 54.800017 0 0 1 129.16211 31.150391 A 54.800017 54.800017 0 0 1 128.8125 31.666016 A 54.800017 54.800017 0 0 1 128.45703 32.177734 A 54.800017 54.800017 0 0 1 128.0957 32.683594 A 54.800017 54.800017 0 0 1 127.72852 33.1875 A 54.800017 54.800017 0 0 1 127.35742 33.685547 A 54.800017 54.800017 0 0 1 126.97852 34.179688 A 54.800017 54.800017 0 0 1 126.59375 34.669922 A 54.800017 54.800017 0 0 1 126.20508 35.15625 A 54.800017 54.800017 0 0 1 125.81055 35.636719 A 54.800017 54.800017 0 0 1 125.41016 36.113281 A 54.800017 54.800017 0 0 1 125.00391 36.585938 A 54.800017 54.800017 0 0 1 124.59375 37.052734 A 54.800017 54.800017 0 0 1 124.17773 37.515625 A 54.800017 54.800017 0 0 1 123.75586 37.972656 A 54.800017 54.800017 0 0 1 123.32812 38.425781 A 54.800017 54.800017 0 0 1 122.89648 38.875 A 54.800017 54.800017 0 0 1 122.45898 39.318359 A 54.800017 54.800017 0 0 1 122.01758 39.755859 A 54.800017 54.800017 0 0 1 121.57031 40.189453 A 54.800017 54.800017 0 0 1 121.11914 40.619141 A 54.800017 54.800017 0 0 1 120.66211 41.041016 A 54.800017 54.800017 0 0 1 120.20117 41.458984 A 54.800017 54.800017 0 0 1 119.73438 41.871094 A 54.800017 54.800017 0 0 1 119.26367 42.279297 A 54.800017 54.800017 0 0 1 118.78906 42.681641 A 54.800017 54.800017 0 0 1 118.30859 43.078125 A 54.800017 54.800017 0 0 1 117.82422 43.46875 A 54.800017 54.800017 0 0 1 117.33594 43.853516 A 54.800017 54.800017 0 0 1 116.8418 44.234375 A 54.800017 54.800017 0 0 1 116.3457 44.607422 A 54.800017 54.800017 0 0 1 115.84375 44.976562 A 54.800017 54.800017 0 0 1 115.33789 45.339844 A 54.800017 54.800017 0 0 1 114.82812 45.697266 A 54.800017 54.800017 0 0 1 114.31445 46.046875 A 54.800017 54.800017 0 0 1 113.79492 46.392578 A 54.800017 54.800017 0 0 1 113.27344 46.732422 A 54.800017 54.800017 0 0 1 112.74805 47.066406 A 54.800017 54.800017 0 0 1 112.21875 47.394531 A 54.800017 54.800017 0 0 1 111.68555 47.714844 A 54.800017 54.800017 0 0 1 111.15039 48.03125 A 54.800017 54.800017 0 0 1 110.60938 48.339844 A 54.800017 54.800017 0 0 1 110.06641 48.642578 A 54.800017 54.800017 0 0 1 109.51953 48.939453 A 54.800017 54.800017 0 0 1 108.96875 49.230469 A 54.800017 54.800017 0 0 1 108.41406 49.515625 A 54.800017 54.800017 0 0 1 107.85742 49.792969 A 54.800017 54.800017 0 0 1 107.29688 50.064453 A 54.800017 54.800017 0 0 1 106.73438 50.330078 A 54.800017 54.800017 0 0 1 106.16797 50.589844 A 54.800017 54.800017 0 0 1 105.59961 50.841797 A 54.800017 54.800017 0 0 1 105.02734 51.087891 A 54.800017 54.800017 0 0 1 104.45312 51.328125 A 54.800017 54.800017 0 0 1 103.87695 51.560547 A 54.800017 54.800017 0 0 1 103.29688 51.787109 A 54.800017 54.800017 0 0 1 102.71484 52.007812 A 54.800017 54.800017 0 0 1 102.12891 52.220703 A 54.800017 54.800017 0 0 1 101.54102 52.427734 A 54.800017 54.800017 0 0 1 100.95312 52.626953 A 54.800017 54.800017 0 0 1 100.36133 52.820312 A 54.800017 54.800017 0 0 1 99.767578 53.007812 A 54.800017 54.800017 0 0 1 99.169922 53.1875 A 54.800017 54.800017 0 0 1 98.572266 53.359375 A 54.800017 54.800017 0 0 1 97.972656 53.525391 A 54.800017 54.800017 0 0 1 97.371094 53.685547 A 54.800017 54.800017 0 0 1 96.767578 53.837891 A 54.800017 54.800017 0 0 1 96.162109 53.982422 A 54.800017 54.800017 0 0 1 95.554688 54.121094 A 54.800017 54.800017 0 0 1 94.947266 54.253906 A 54.800017 54.800017 0 0 1 94.337891 54.378906 A 54.800017 54.800017 0 0 1 93.726562 54.496094 A 54.800017 54.800017 0 0 1 93.113281 54.607422 A 54.800017 54.800017 0 0 1 92.5 54.710938 A 54.800017 54.800017 0 0 1 91.884766 54.808594 A 54.800017 54.800017 0 0 1 91.269531 54.898438 A 54.800017 54.800017 0 0 1 90.652344 54.982422 A 54.800017 54.800017 0 0 1 90.035156 55.058594 A 54.800017 54.800017 0 0 1 89.416016 55.126953 A 54.800017 54.800017 0 0 1 88.796875 55.189453 A 54.800017 54.800017 0 0 1 88.175781 55.244141 A 54.800017 54.800017 0 0 1 87.554688 55.291016 A 54.800017 54.800017 0 0 1 86.933594 55.332031 A 54.800017 54.800017 0 0 1 86.3125 55.367188 A 54.800017 54.800017 0 0 1 85.691406 55.392578 A 54.800017 54.800017 0 0 1 85.068359 55.412109 A 54.800017 54.800017 0 0 1 84.447266 55.425781 A 54.800017 54.800017 0 0 1 83.824219 55.431641 A 54.800017 54.800017 0 0 1 83.648438 55.431641 A 54.800017 54.800017 0 0 1 83.025391 55.427734 A 54.800017 54.800017 0 0 1 82.402344 55.416016 A 54.800017 54.800017 0 0 1 81.78125 55.398438 A 54.800017 54.800017 0 0 1 81.158203 55.375 A 54.800017 54.800017 0 0 1 80.537109 55.341797 A 54.800017 54.800017 0 0 1 79.916016 55.304688 A 54.800017 54.800017 0 0 1 79.294922 55.257812 A 54.800017 54.800017 0 0 1 78.675781 55.205078 A 54.800017 54.800017 0 0 1 78.054688 55.144531 A 54.800017 54.800017 0 0 1 77.435547 55.078125 A 54.800017 54.800017 0 0 1 76.818359 55.003906 A 54.800017 54.800017 0 0 1 76.201172 54.921875 A 54.800017 54.800017 0 0 1 75.585938 54.833984 A 54.800017 54.800017 0 0 1 74.970703 54.740234 A 54.800017 54.800017 0 0 1 74.355469 54.636719 A 54.800017 54.800017 0 0 1 73.742188 54.529297 A 54.800017 54.800017 0 0 1 73.130859 54.412109 A 54.800017 54.800017 0 0 1 72.521484 54.289062 A 54.800017 54.800017 0 0 1 71.912109 54.160156 A 54.800017 54.800017 0 0 1 71.304688 54.023438 A 54.800017 54.800017 0 0 1 70.699219 53.878906 A 54.800017 54.800017 0 0 1 70.095703 53.728516 A 54.800017 54.800017 0 0 1 69.492188 53.572266 A 54.800017 54.800017 0 0 1 68.892578 53.408203 A 54.800017 54.800017 0 0 1 68.294922 53.236328 A 54.800017 54.800017 0 0 1 67.697266 53.058594 A 54.800017 54.800017 0 0 1 67.103516 52.873047 A 54.800017 54.800017 0 0 1 66.509766 52.681641 A 54.800017 54.800017 0 0 1 65.919922 52.484375 A 54.800017 54.800017 0 0 1 65.332031 52.279297 A 54.800017 54.800017 0 0 1 64.748047 52.068359 A 54.800017 54.800017 0 0 1 64.164062 51.849609 A 54.800017 54.800017 0 0 1 63.583984 51.625 A 54.800017 54.800017 0 0 1 63.005859 51.394531 A 54.800017 54.800017 0 0 1 62.429688 51.15625 A 54.800017 54.800017 0 0 1 61.857422 50.912109 A 54.800017 54.800017 0 0 1 61.287109 50.662109 A 54.800017 54.800017 0 0 1 60.720703 50.404297 A 54.800017 54.800017 0 0 1 60.158203 50.140625 A 54.800017 54.800017 0 0 1 59.595703 49.871094 A 54.800017 54.800017 0 0 1 59.039062 49.59375 A 54.800017 54.800017 0 0 1 58.484375 49.3125 A 54.800017 54.800017 0 0 1 57.933594 49.023438 A 54.800017 54.800017 0 0 1 57.384766 48.728516 A 54.800017 54.800017 0 0 1 56.839844 48.425781 A 54.800017 54.800017 0 0 1 56.298828 48.119141 A 54.800017 54.800017 0 0 1 55.761719 47.804688 A 54.800017 54.800017 0 0 1 55.226562 47.484375 A 54.800017 54.800017 0 0 1 54.697266 47.160156 A 54.800017 54.800017 0 0 1 54.169922 46.828125 A 54.800017 54.800017 0 0 1 53.646484 46.490234 A 54.800017 54.800017 0 0 1 53.128906 46.146484 A 54.800017 54.800017 0 0 1 52.613281 45.796875 A 54.800017 54.800017 0 0 1 52.101562 45.441406 A 54.800017 54.800017 0 0 1 51.595703 45.080078 A 54.800017 54.800017 0 0 1 51.091797 44.712891 A 54.800017 54.800017 0 0 1 50.59375 44.339844 A 54.800017 54.800017 0 0 1 50.099609 43.960938 A 54.800017 54.800017 0 0 1 49.609375 43.578125 A 54.800017 54.800017 0 0 1 49.123047 43.1875 A 54.800017 54.800017 0 0 1 48.642578 42.792969 A 54.800017 54.800017 0 0 1 48.166016 42.392578 A 54.800017 54.800017 0 0 1 47.693359 41.988281 A 54.800017 54.800017 0 0 1 47.226562 41.576172 A 54.800017 54.800017 0 0 1 46.763672 41.160156 A 54.800017 54.800017 0 0 1 46.304688 40.738281 A 54.800017 54.800017 0 0 1 45.851562 40.3125 A 54.800017 54.800017 0 0 1 45.404297 39.878906 A 54.800017 54.800017 0 0 1 44.960938 39.443359 A 54.800017 54.800017 0 0 1 44.521484 39 A 54.800017 54.800017 0 0 1 44.089844 38.554688 A 54.800017 54.800017 0 0 1 43.660156 38.101562 A 54.800017 54.800017 0 0 1 43.238281 37.644531 A 54.800017 54.800017 0 0 1 42.820312 37.183594 A 54.800017 54.800017 0 0 1 42.408203 36.71875 A 54.800017 54.800017 0 0 1 42 36.248047 A 54.800017 54.800017 0 0 1 41.597656 35.771484 A 54.800017 54.800017 0 0 1 41.201172 35.291016 A 54.800017 54.800017 0 0 1 40.810547 34.806641 A 54.800017 54.800017 0 0 1 40.425781 34.318359 A 54.800017 54.800017 0 0 1 40.044922 33.826172 A 54.800017 54.800017 0 0 1 39.671875 33.328125 A 54.800017 54.800017 0 0 1 39.302734 32.826172 A 54.800017 54.800017 0 0 1 38.939453 32.320312 A 54.800017 54.800017 0 0 1 38.582031 31.810547 A 54.800017 54.800017 0 0 1 38.232422 31.296875 A 54.800017 54.800017 0 0 1 37.886719 30.779297 A 54.800017 54.800017 0 0 1 37.546875 30.257812 A 54.800017 54.800017 0 0 1 37.212891 29.732422 A 54.800017 54.800017 0 0 1 36.884766 29.203125 A 54.800017 54.800017 0 0 1 36.564453 28.669922 A 54.800017 54.800017 0 0 1 36.484375 28.533203 z " transform="scale(0.26458333)"></path>
    <path id="SvgjsPath1100" style="fill:none;stroke:#000000;stroke-width:2.4;stroke-miterlimit:4;stroke-dasharray:none;marker-end:url(#marker1577)" d="M 56.45349 17.123687 L 36.484375 28.533203 L 36.484375 28.533203 A 54.800016 54.800016 0 0 0 36.564453 28.669922 A 54.800016 54.800016 0 0 0 36.884766 29.203125 A 54.800016 54.800016 0 0 0 37.212891 29.732422 A 54.800016 54.800016 0 0 0 37.546875 30.257812 A 54.800016 54.800016 0 0 0 37.886719 30.779297 A 54.800016 54.800016 0 0 0 38.232422 31.296875 A 54.800016 54.800016 0 0 0 38.582031 31.810547 A 54.800016 54.800016 0 0 0 38.939453 32.320312 A 54.800016 54.800016 0 0 0 39.302734 32.826172 A 54.800016 54.800016 0 0 0 39.671875 33.328125 A 54.800016 54.800016 0 0 0 40.044921 33.826172 A 54.800016 54.800016 0 0 0 40.42578 34.318359 A 54.800016 54.800016 0 0 0 40.810546 34.806641 A 54.800016 54.800016 0 0 0 41.201171 35.291016 A 54.800016 54.800016 0 0 0 41.597655 35.771484 A 54.800016 54.800016 0 0 0 41.999999 36.248047 A 54.800016 54.800016 0 0 0 42.408202 36.71875 A 54.800016 54.800016 0 0 0 42.820311 37.183594 A 54.800016 54.800016 0 0 0 43.23828 37.644531 A 54.800016 54.800016 0 0 0 43.660155 38.101562 A 54.800016 54.800016 0 0 0 44.089843 38.554688 A 54.800016 54.800016 0 0 0 44.521483 39 A 54.800016 54.800016 0 0 0 44.960937 39.443359 A 54.800016 54.800016 0 0 0 45.404296 39.878905 A 54.800016 54.800016 0 0 0 45.851561 40.312499 A 54.800016 54.800016 0 0 0 46.304687 40.73828 A 54.800016 54.800016 0 0 0 46.763671 41.160155 A 54.800016 54.800016 0 0 0 47.226561 41.576171 A 54.800016 54.800016 0 0 0 47.693358 41.98828 A 54.800016 54.800016 0 0 0 48.166015 42.392577 A 54.800016 54.800016 0 0 0 48.642577 42.792968 A 54.800016 54.800016 0 0 0 49.123046 43.187499 A 54.800016 54.800016 0 0 0 49.609374 43.578124 A 54.800016 54.800016 0 0 0 50.099608 43.960937 A 54.800016 54.800016 0 0 0 50.593749 44.339843 A 54.800016 54.800016 0 0 0 51.091796 44.71289 A 54.800016 54.800016 0 0 0 51.595702 45.080077 A 54.800016 54.800016 0 0 0 52.101561 45.441405 A 54.800016 54.800016 0 0 0 52.61328 45.796874 A 54.800016 54.800016 0 0 0 53.128905 46.146483 A 54.800016 54.800016 0 0 0 53.646483 46.490233 A 54.800016 54.800016 0 0 0 54.169921 46.828124 A 54.800016 54.800016 0 0 0 54.697265 47.160155 A 54.800016 54.800016 0 0 0 55.226561 47.484374 A 54.800016 54.800016 0 0 0 55.761718 47.804687 A 54.800016 54.800016 0 0 0 56.298827 48.11914 A 54.800016 54.800016 0 0 0 56.452956 48.207326 " transform="scale(0.26458333)"></path>
    <path id="SvgjsPath1099" style="fill:none;stroke:#000000;stroke-width:2.4;stroke-miterlimit:4;stroke-dasharray:none;stroke-linecap:round;stroke-linejoin:bevel" d="M 83.999998 1.3847656 L 56.453489 17.123687 " transform="scale(0.26458333)"></path>
    <path id="SvgjsPath1098" style="fill:none;stroke:#000000;stroke-width:2.4;stroke-miterlimit:4;stroke-dasharray:none;stroke-linejoin:bevel;stroke-linecap:round" d="M 111.70666 17.215497 L 83.999997 1.3847656 L 83.999997 1.3847656 " transform="scale(0.26458333)"></path>
    <path id="SvgjsPath1097" style="fill:none;stroke:#000000;stroke-width:2.4;stroke-miterlimit:4;stroke-dasharray:none;marker-mid:" d="M 111.70744 47.701851 A 54.800014 54.800014 0 0 0 112.21875 47.394528 A 54.800014 54.800014 0 0 0 112.74805 47.066403 A 54.800014 54.800014 0 0 0 113.27344 46.732419 A 54.800014 54.800014 0 0 0 113.79492 46.392575 A 54.800014 54.800014 0 0 0 114.31445 46.046872 A 54.800014 54.800014 0 0 0 114.82812 45.697263 A 54.800014 54.800014 0 0 0 115.33789 45.339841 A 54.800014 54.800014 0 0 0 115.84375 44.976559 A 54.800014 54.800014 0 0 0 116.3457 44.607419 A 54.800014 54.800014 0 0 0 116.8418 44.234372 A 54.800014 54.800014 0 0 0 117.33594 43.853513 A 54.800014 54.800014 0 0 0 117.82422 43.468747 A 54.800014 54.800014 0 0 0 118.30859 43.078122 A 54.800014 54.800014 0 0 0 118.78906 42.681638 A 54.800014 54.800014 0 0 0 119.26367 42.279294 A 54.800014 54.800014 0 0 0 119.73438 41.871091 A 54.800014 54.800014 0 0 0 120.20117 41.458981 A 54.800014 54.800014 0 0 0 120.66211 41.041013 A 54.800014 54.800014 0 0 0 121.11914 40.619138 A 54.800014 54.800014 0 0 0 121.57031 40.18945 A 54.800014 54.800014 0 0 0 122.01758 39.755856 A 54.800014 54.800014 0 0 0 122.45898 39.318359 A 54.800014 54.800014 0 0 0 122.89648 38.875 A 54.800014 54.800014 0 0 0 123.32812 38.425781 A 54.800014 54.800014 0 0 0 123.75586 37.972656 A 54.800014 54.800014 0 0 0 124.17773 37.515625 A 54.800014 54.800014 0 0 0 124.59375 37.052734 A 54.800014 54.800014 0 0 0 125.00391 36.585938 A 54.800014 54.800014 0 0 0 125.41016 36.113281 A 54.800014 54.800014 0 0 0 125.81055 35.636719 A 54.800014 54.800014 0 0 0 126.20508 35.15625 A 54.800014 54.800014 0 0 0 126.59375 34.669922 A 54.800014 54.800014 0 0 0 126.97852 34.179688 A 54.800014 54.800014 0 0 0 127.35742 33.685547 A 54.800014 54.800014 0 0 0 127.72852 33.1875 A 54.800014 54.800014 0 0 0 128.0957 32.683594 A 54.800014 54.800014 0 0 0 128.45703 32.177734 A 54.800014 54.800014 0 0 0 128.8125 31.666016 A 54.800014 54.800014 0 0 0 129.16211 31.150391 A 54.800014 54.800014 0 0 0 129.50586 30.632812 A 54.800014 54.800014 0 0 0 129.84375 30.109375 A 54.800014 54.800014 0 0 0 130.17578 29.582031 A 54.800014 54.800014 0 0 0 130.50195 29.052734 A 54.800014 54.800014 0 0 0 130.82227 28.517578 A 54.800014 54.800014 0 0 0 130.98828 28.232422 L 111.70666 17.215497 " transform="scale(0.26458333)"></path>
    <path id="SvgjsPath1096" style="fill:none;stroke:#000000;stroke-width:2.4;stroke-miterlimit:4;stroke-dasharray:none;marker-end:url(#marker1309)" d="M 83.999841 55.430704 A 54.800014 54.800014 0 0 0 84.447263 55.425778 A 54.800014 54.800014 0 0 0 85.068356 55.412106 A 54.800014 54.800014 0 0 0 85.691403 55.392575 A 54.800014 54.800014 0 0 0 86.312497 55.367185 A 54.800014 54.800014 0 0 0 86.933591 55.332028 A 54.800014 54.800014 0 0 0 87.554685 55.291013 A 54.800014 54.800014 0 0 0 88.175778 55.244138 A 54.800014 54.800014 0 0 0 88.796872 55.18945 A 54.800014 54.800014 0 0 0 89.416013 55.12695 A 54.800014 54.800014 0 0 0 90.035153 55.058591 A 54.800014 54.800014 0 0 0 90.652341 54.982419 A 54.800014 54.800014 0 0 0 91.269528 54.898435 A 54.800014 54.800014 0 0 0 91.884763 54.808591 A 54.800014 54.800014 0 0 0 92.499997 54.710935 A 54.800014 54.800014 0 0 0 93.113278 54.607419 A 54.800014 54.800014 0 0 0 93.726559 54.496091 A 54.800014 54.800014 0 0 0 94.337888 54.378903 A 54.800014 54.800014 0 0 0 94.947263 54.253903 A 54.800014 54.800014 0 0 0 95.554685 54.121091 A 54.800014 54.800014 0 0 0 96.162106 53.982419 A 54.800014 54.800014 0 0 0 96.767575 53.837888 A 54.800014 54.800014 0 0 0 97.371091 53.685544 A 54.800014 54.800014 0 0 0 97.972653 53.525388 A 54.800014 54.800014 0 0 0 98.572263 53.359372 A 54.800014 54.800014 0 0 0 99.169919 53.187497 A 54.800014 54.800014 0 0 0 99.767575 53.007809 A 54.800014 54.800014 0 0 0 100.36133 52.820309 A 54.800014 54.800014 0 0 0 100.95312 52.62695 A 54.800014 54.800014 0 0 0 101.54102 52.427731 A 54.800014 54.800014 0 0 0 102.12891 52.2207 A 54.800014 54.800014 0 0 0 102.71484 52.007809 A 54.800014 54.800014 0 0 0 103.29688 51.787106 A 54.800014 54.800014 0 0 0 103.87695 51.560544 A 54.800014 54.800014 0 0 0 104.45312 51.328122 A 54.800014 54.800014 0 0 0 105.02734 51.087888 A 54.800014 54.800014 0 0 0 105.59961 50.841794 A 54.800014 54.800014 0 0 0 106.16797 50.589841 A 54.800014 54.800014 0 0 0 106.73438 50.330075 A 54.800014 54.800014 0 0 0 107.29688 50.06445 A 54.800014 54.800014 0 0 0 107.85742 49.792966 A 54.800014 54.800014 0 0 0 108.41406 49.515622 A 54.800014 54.800014 0 0 0 108.96875 49.230466 A 54.800014 54.800014 0 0 0 109.51953 48.93945 A 54.800014 54.800014 0 0 0 110.06641 48.642575 A 54.800014 54.800014 0 0 0 110.60938 48.339841 A 54.800014 54.800014 0 0 0 111.15039 48.031247 A 54.800014 54.800014 0 0 0 111.68555 47.714841 A 54.800014 54.800014 0 0 0 111.70744 47.701851 " transform="scale(0.26458333)"></path>
    <path id="SvgjsPath1095" style="fill:none;stroke:#000000;stroke-width:2.4;stroke-miterlimit:4;stroke-dasharray:none;marker-end:url(#marker1257)" d="M 56.452955 48.207325 A 54.800015 54.800015 0 0 0 56.839842 48.425779 A 54.800015 54.800015 0 0 0 57.384764 48.728514 A 54.800015 54.800015 0 0 0 57.933592 49.023436 A 54.800015 54.800015 0 0 0 58.484373 49.312498 A 54.800015 54.800015 0 0 0 59.03906 49.593748 A 54.800015 54.800015 0 0 0 59.595701 49.871092 A 54.800015 54.800015 0 0 0 60.158201 50.140623 A 54.800015 54.800015 0 0 0 60.720701 50.404295 A 54.800015 54.800015 0 0 0 61.287107 50.662107 A 54.800015 54.800015 0 0 0 61.85742 50.912107 A 54.800015 54.800015 0 0 0 62.429686 51.156248 A 54.800015 54.800015 0 0 0 63.005857 51.394529 A 54.800015 54.800015 0 0 0 63.583982 51.624998 A 54.800015 54.800015 0 0 0 64.16406 51.849607 A 54.800015 54.800015 0 0 0 64.748045 52.068357 A 54.800015 54.800015 0 0 0 65.332029 52.279295 A 54.800015 54.800015 0 0 0 65.91992 52.484373 A 54.800015 54.800015 0 0 0 66.509764 52.681639 A 54.800015 54.800015 0 0 0 67.103514 52.873045 A 54.800015 54.800015 0 0 0 67.697264 53.058592 A 54.800015 54.800015 0 0 0 68.29492 53.236326 A 54.800015 54.800015 0 0 0 68.892576 53.408201 A 54.800015 54.800015 0 0 0 69.492186 53.572264 A 54.800015 54.800015 0 0 0 70.095701 53.728514 A 54.800015 54.800015 0 0 0 70.699217 53.878904 A 54.800015 54.800015 0 0 0 71.304686 54.023436 A 54.800015 54.800015 0 0 0 71.912107 54.160154 A 54.800015 54.800015 0 0 0 72.521482 54.28906 A 54.800015 54.800015 0 0 0 73.130857 54.412107 A 54.800015 54.800015 0 0 0 73.742186 54.529295 A 54.800015 54.800015 0 0 0 74.355467 54.636717 A 54.800015 54.800015 0 0 0 74.970701 54.740232 A 54.800015 54.800015 0 0 0 75.585936 54.833982 A 54.800015 54.800015 0 0 0 76.20117 54.921873 A 54.800015 54.800015 0 0 0 76.818357 55.003904 A 54.800015 54.800015 0 0 0 77.435545 55.078123 A 54.800015 54.800015 0 0 0 78.054686 55.144529 A 54.800015 54.800015 0 0 0 78.675779 55.205076 A 54.800015 54.800015 0 0 0 79.29492 55.25781 A 54.800015 54.800015 0 0 0 79.916014 55.304686 A 54.800015 54.800015 0 0 0 80.537107 55.341795 A 54.800015 54.800015 0 0 0 81.158201 55.374998 A 54.800015 54.800015 0 0 0 81.781248 55.398436 A 54.800015 54.800015 0 0 0 82.402342 55.416014 A 54.800015 54.800015 0 0 0 83.025389 55.427732 A 54.800015 54.800015 0 0 0 83.648436 55.431639 A 54.800015 54.800015 0 0 0 83.824217 55.431639 A 54.800015 54.800015 0 0 0 83.999842 55.430705 " transform="scale(0.26458333)"></path>
    <path style="fill:none;stroke:#000000;stroke-width:0.635;stroke-linecap:butt;stroke-linejoin:miter;stroke-opacity:1;stroke-miterlimit:4;stroke-dasharray:none;marker-end:url(#marker1613)" d="m 22.224958,14.66604 v 7.862043" id="SvgjsPath1094"></path>
    <path style="fill:none;stroke:#000000;stroke-width:0.635;stroke-linecap:butt;stroke-linejoin:miter;stroke-miterlimit:4;stroke-dasharray:none;stroke-opacity:1;marker-end:url(#marker1613-2)" d="m 29.555926,12.621115 -0.04261,9.08423" id="SvgjsPath1093" sodipodi:nodetypes="cc"></path>
    <path style="fill:none;stroke:#000000;stroke-width:0.635;stroke-linecap:butt;stroke-linejoin:miter;stroke-miterlimit:4;stroke-dasharray:none;stroke-opacity:1;marker-end:url(#marker1679)" d="m 22.224958,22.528083 v 7.862043" id="SvgjsPath1092"></path>
    <path style="fill:none;stroke:#000000;stroke-width:0.635;stroke-linecap:butt;stroke-linejoin:miter;stroke-miterlimit:4;stroke-dasharray:none;stroke-opacity:1;marker-end:url(#marker1679-5)" d="M 36.865281,25.381526 V 17.519483" id="SvgjsPath1091"></path>
    <path style="fill:none;stroke:#000000;stroke-width:0.635;stroke-linecap:butt;stroke-linejoin:miter;stroke-miterlimit:4;stroke-dasharray:none;stroke-opacity:1;marker-end:url(#marker1773)" d="m 22.224958,30.390126 v 7.862043" id="SvgjsPath1090"></path>
    <path style="fill:none;stroke:#000000;stroke-width:0.635;stroke-linecap:butt;stroke-linejoin:miter;stroke-miterlimit:4;stroke-dasharray:none;stroke-opacity:1;marker-end:url(#marker1890)" d="m 22.224958,38.252169 v 7.862043" id="SvgjsPath1089"></path>
    <path style="fill:none;stroke:#000000;stroke-width:0.635;stroke-linecap:butt;stroke-linejoin:miter;stroke-miterlimit:4;stroke-dasharray:none;stroke-opacity:1;marker-end:url(#marker1773-0)" d="m 14.936599,34.617099 v 7.862043" id="SvgjsPath1088"></path>
    <path style="fill:none;stroke:#000000;stroke-width:0.635;stroke-linecap:butt;stroke-linejoin:miter;stroke-miterlimit:4;stroke-dasharray:none;stroke-opacity:1;marker-end:url(#marker1679-0)" d="m 14.936599,26.755056 v 7.862043" id="SvgjsPath1087"></path>
    <path style="fill:none;stroke:#000000;stroke-width:0.635;stroke-linecap:butt;stroke-linejoin:miter;stroke-miterlimit:4;stroke-dasharray:none;stroke-opacity:1;marker-end:url(#marker1679-6)" d="m 14.936511,12.754855 8.8e-5,14.000201" id="SvgjsPath1086" sodipodi:nodetypes="cc"></path>
    <path style="fill:none;stroke:#000000;stroke-width:0.635;stroke-linecap:butt;stroke-linejoin:miter;stroke-miterlimit:4;stroke-dasharray:none;stroke-opacity:1;marker-end:url(#marker1679-6-3)" d="m 36.865193,39.4002 8.8e-5,-14.000201" id="SvgjsPath1085" sodipodi:nodetypes="cc"></path>
    <path style="fill:none;stroke:#000000;stroke-width:0.635;stroke-linecap:butt;stroke-linejoin:miter;stroke-miterlimit:4;stroke-dasharray:none;stroke-opacity:1;marker-start:url(#marker2648);marker-end:url(#marker1890)" d="m 29.513317,42.479142 -7.288359,3.63507" id="SvgjsPath1084" sodipodi:nodetypes="cc"></path>
    <path style="fill:none;stroke:#000000;stroke-width:0.635;stroke-linecap:butt;stroke-linejoin:miter;stroke-miterlimit:4;stroke-dasharray:none;stroke-opacity:1;marker-start:url(#marker2648);marker-end:url(#marker1890)" d="m 36.801676,38.844072 -7.288359,3.63507" id="SvgjsPath1083" sodipodi:nodetypes="cc"></path>
    <path style="fill:none;stroke:#000000;stroke-width:0.635;stroke-linecap:butt;stroke-linejoin:miter;stroke-miterlimit:4;stroke-dasharray:none;stroke-opacity:1;marker-start:url(#marker2648);marker-end:url(#marker1890)" d="m 36.801676,25.340415 -7.288359,-3.63507" id="SvgjsPath1082" sodipodi:nodetypes="cc"></path>
    <path style="fill:#648fff;fill-opacity:1;stroke:none;stroke-width:2.4;stroke-linecap:round;stroke-linejoin:bevel;stroke-opacity:1" d="m 61.697728,16.561496 c -7.313285,4.301588 -15.137224,8.417397 -22.064801,12.978602 3.483374,5.162701 7.788929,9.732846 12.764895,13.524656 3.202404,-2.177882 8.194055,-1.249172 9.655837,2.565948 0.801244,1.398116 0.194386,3.806242 2.35432,4.030243 4.433827,1.557827 8.988935,3.008187 13.693545,3.2284 1.781039,-4.594634 9.103902,-5.017699 11.284912,-0.560135 0.782355,1.213486 2.650494,0.03324 3.804223,0.111353 4.127394,-0.824745 8.225421,-2.13828 12.149571,-3.789233 -0.42718,-3.59438 2.38504,-7.334416 6.17537,-7.089151 1.4659,-0.242394 2.78629,0.893085 4.13853,0.773028 4.29872,-3.273395 7.95254,-7.426967 11.26373,-11.686868 0.65191,-0.844408 1.57985,-1.973244 -0.15926,-2.274795 C 112.55583,20.111839 98.257603,12.015801 83.999815,3.84966 76.565788,8.0869389 69.131757,12.324218 61.697728,16.561496 Z" id="SvgjsPath1081" transform="scale(0.26458333)"></path>
    <path style="fill:#dc267f;fill-opacity:1;stroke:none;stroke-width:2.4;stroke-linecap:round;stroke-linejoin:bevel;stroke-opacity:1" d="m 60.548633,52.97592 c -0.905324,0.927265 -2.778627,0.882054 -2.171656,2.608524 3.03e-4,13.14 0.001,26.279999 0.002,39.419998 3.779536,1.304327 5.58494,6.273968 3.215527,9.573548 -0.757983,1.18162 -1.975095,1.95511 -3.215527,2.55134 0,5.83576 0,11.67152 0,17.50729 3.779536,1.30432 5.58494,6.27397 3.215527,9.57354 -0.757983,1.18162 -1.975095,1.95512 -3.215527,2.55134 -10e-4,5.86884 -0.0017,11.73767 -0.0021,17.60651 2.847329,0.9946 4.701405,3.94505 4.233168,6.94917 5.619306,2.70242 11.194919,5.87102 16.871351,8.24931 1.003107,-0.82028 2.903956,-1.01083 2.464679,-2.72378 0.148223,-5.34748 0.04368,-10.9011 0.07495,-16.32341 -3.779537,-1.30433 -5.584941,-6.27397 -3.215527,-9.57355 0.757982,-1.18162 1.975094,-1.95511 3.215527,-2.55134 0.0011,-5.86998 0.0017,-11.73996 0.0021,-17.60995 -2.803585,-0.85762 -4.440254,-3.67998 -4.193207,-6.53509 -0.135718,-2.55495 2.062818,-4.49366 4.190451,-5.48713 -0.0095,-5.94715 -0.01937,-11.894305 -0.02962,-17.841454 -4.37509,-1.277895 -5.783227,-7.667401 -2.129675,-10.510576 0.678396,-0.970137 2.45098,-0.969173 2.070421,-2.459702 0.172637,-5.450868 0.0564,-10.969358 0.09162,-16.446932 -2.018804,-0.602053 -3.523204,-2.349327 -4.2249,-4.2249 -5.846023,-0.720471 -11.530522,-2.40626 -17.066336,-4.368899 -0.064,0.0024 -0.160687,-0.04563 -0.183272,0.06614 z" id="SvgjsPath1080" transform="scale(0.26458333)"></path>
    <path style="fill:#fe6100;fill-opacity:1;stroke:none;stroke-width:2.4;stroke-linecap:round;stroke-linejoin:bevel;stroke-opacity:1" d="m 107.08385,52.551501 c -5.45223,2.275475 -11.208575,3.853737 -17.0746,4.657587 -0.648971,1.799561 -1.956017,3.349154 -3.761898,4.060231 -0.001,5.967361 -0.0017,11.934722 -0.0021,17.902084 4.800721,1.480193 5.353612,9.021998 0.954254,11.36148 -1.52378,0.46773 -0.578032,2.54165 -0.909546,3.717748 0.07413,4.857345 -0.352165,9.938659 0.239846,14.641829 4.049538,1.85454 5.061772,8.15104 1.304951,10.81993 -1.786535,0.52596 -1.753068,1.98526 -1.577212,3.66888 -0.0037,5.03677 -0.008,10.07353 -0.01229,15.11029 3.349881,1.46264 5.053561,5.77493 3.177632,9.00168 -0.617329,1.49213 -2.459903,2.13404 -3.177632,3.28168 0.126648,5.84445 -0.259487,11.78713 0.237702,17.58032 1.131943,0.33034 1.916745,1.91317 3.102163,0.74469 5.262714,-2.51777 10.45898,-5.17084 15.6839,-7.76552 -0.28473,-3.70657 2.80335,-7.52951 6.69425,-7.03117 1.50737,0.0437 2.98356,0.59655 4.10777,1.61294 5.51076,-2.94106 11.37304,-5.29025 16.63916,-8.62894 0.16287,-2.38368 1.2611,-5.02866 3.62341,-6.1341 1.6562,-0.32999 0.64519,-2.53892 1.01006,-3.70402 0.12328,-11.76604 0.0372,-23.5333 0.0634,-35.29983 -2.9187,-0.93745 -4.53582,-4.050519 -4.69893,-6.916102 -5.26135,-3.308736 -11.08637,-5.676604 -16.57439,-8.59931 -3.10739,2.82015 -8.89361,1.985948 -10.36589,-2.180661 -1.42879,-3.272584 0.42996,-7.303548 3.76879,-8.49803 0.001,-7.40414 0.002,-14.808279 0.002,-22.212419 -0.85741,-0.247258 -1.65492,-1.015496 -2.4549,-1.191267 z" id="SvgjsPath1079" transform="scale(0.26458333)"></path>
    <path style="fill:#ffb000;fill-opacity:1;stroke:none;stroke-width:2.4;stroke-linecap:round;stroke-linejoin:bevel;stroke-opacity:1" d="m 131.74564,31.259575 c -3.86344,5.580577 -8.51303,10.703587 -13.8763,14.918748 0.33411,2.690818 -0.58488,5.631637 -3.12803,6.939529 -2.01823,1.067623 -0.51934,4.029896 -0.97912,5.937046 10e-4,5.637334 0.003,11.274669 0.004,16.912003 2.61514,1.093322 4.19669,3.85606 4.32618,6.581941 5.29107,3.344983 11.13152,5.781372 16.70324,8.641339 0.87949,-1.164929 3.32123,-0.906378 2.60859,-2.884809 -0.008,-5.35852 -0.015,-10.717044 -0.0221,-16.075564 -3.29513,-0.920704 -5.14267,-4.623474 -4.07815,-7.82902 0.9628,-3.899957 5.91896,-5.52756 9.24472,-3.529713 1.94271,1.099399 3.73017,-1.604141 5.60561,-2.152454 5.21063,-2.985134 10.43787,-5.94222 15.60864,-8.996122 -10.50904,-6.348742 -21.18085,-12.585706 -31.95477,-18.540091 z" id="SvgjsPath1078" transform="scale(0.26458333)"></path>
    <g aria-label="cobrar" id="SvgjsG1077" style="font-style:normal;font-weight:normal;font-size:11.9944px;line-height:1.25;font-family:sans-serif;fill:#000000;fill-opacity:1;stroke:none;stroke-width:0.264583" transform="translate(0,4.7625001)"></g>
    <path id="SvgjsPath1076" style="fill:none;stroke:#000000;stroke-width:0.635;stroke-linecap:butt;stroke-linejoin:miter;stroke-miterlimit:4;stroke-dasharray:none;stroke-opacity:1" d="M 14.936599,34.595219 7.6269251,30.418806"></path>
    <path style="fill:none;stroke:#000000;stroke-width:0.635;stroke-linecap:butt;stroke-linejoin:miter;stroke-miterlimit:4;stroke-dasharray:none;stroke-opacity:1;marker-end:url(#marker1679-0)" d="m 7.6482397,22.392743 v 7.862043" id="SvgjsPath1075"></path>
    <path style="fill:#648fff;fill-opacity:1;stroke:none;stroke-width:2.4;stroke-linecap:round;stroke-linejoin:bevel;stroke-opacity:1" d="m 162.41237,55.514778 c -5.58844,3.158765 -11.1883,6.378112 -16.77795,9.571714 0.0973,2.862946 -1.01577,6.157681 -3.99966,7.105909 -0.53202,5.852792 -0.10317,11.782822 -0.24425,17.66409 4.91725,1.657678 5.60136,9.520064 0.89705,11.805619 -1.93085,1.0945 -0.41634,4.36856 -0.89705,6.38042 0,10.94467 0,21.88935 0,32.83402 4.94408,1.37076 5.2837,8.89007 1.03589,11.32948 -2.40739,0.96215 -5.747,1.3235 -7.58932,-0.92323 -5.5341,2.96182 -11.42469,5.33451 -16.73578,8.67757 -0.27189,2.16065 -1.05469,4.56913 -3.07935,5.81194 -2.1037,1.39129 -5.28835,1.19965 -7.2782,-0.2995 -1.80676,-0.57084 -4.09265,1.81336 -6.08747,2.40234 -3.687881,2.0741 -7.865579,3.48117 -11.23059,6.03825 0.310252,4.48358 -4.795698,7.96819 -8.869484,6.07437 -2.648293,-0.93143 -3.849223,-3.84006 -3.77867,-6.47565 -5.620889,-2.74299 -11.241889,-5.48576 -16.862994,-8.22831 -2.920045,2.00259 -7.298734,1.93657 -9.500473,-1.10133 -2.49803,-3.11254 -0.836729,-8.39827 2.955765,-9.60879 0.0047,-5.92074 0.0098,-11.84148 0.01526,-17.76223 -2.900144,-1.05271 -4.534874,-4.16432 -4.094167,-7.16333 -5.99192,-3.2194 -11.695037,-7.04229 -17.879266,-9.87267 -1.563077,0.37364 -3.254517,1.21994 -4.949784,0.58664 -2.70793,-0.66441 -5.079879,-3.15442 -4.527427,-6.10417 -0.497592,-2.75051 1.510639,-5.01887 3.908069,-6.01985 0,-5.61397 0,-11.227943 0,-16.841916 -2.976176,-0.910889 -4.51152,-4.129509 -4.094167,-7.08628 C 16.319124,80.647943 9.9085392,76.930937 3.4486376,73.342431 3.2083048,96.241003 3.341575,119.14165 3.305429,142.04113 c 26.053952,14.78169 51.89609,29.94323 78.117851,44.42478 1.403499,0.56794 3.031019,2.15947 4.414785,0.65911 26.199775,-14.91836 52.356215,-29.91368 78.531965,-44.87453 0.0319,-29.29034 0.20375,-58.580992 0.0705,-87.871204 -0.67606,0.378497 -1.35213,0.756995 -2.02818,1.135492 z" id="SvgjsPath1074" transform="scale(0.26458333)"></path>
    <path style="fill:#785ef0;fill-opacity:1;stroke:none;stroke-width:2.4;stroke-linecap:round;stroke-linejoin:bevel;stroke-opacity:1" d="M 35.505175,31.560479 C 24.707544,37.546735 14.029957,43.746347 3.2991835,49.851156 c -0.036753,6.164959 -0.073529,12.329921 -0.1103276,18.49488 7.2031621,4.098216 14.4063951,8.196308 21.6097001,12.294274 2.762717,-2.446455 7.581548,-1.844761 9.408818,1.448775 2.04228,3.172652 0.490504,8.181658 -3.281279,9.179455 0,5.670743 0,11.34149 0,17.01223 2.819717,0.93861 4.521569,3.90442 4.170191,6.81176 -0.517934,1.74283 1.969849,1.85756 2.947233,2.79042 4.720322,2.71397 9.439145,5.4306 14.162745,8.13879 0.744553,-0.47794 1.478431,-1.01808 2.342528,-1.25812 0,-5.91882 0,-11.83764 0,-17.75646 -3.83702,-1.12869 -5.56091,-6.15821 -3.303055,-9.423332 0.748778,-1.208473 1.986498,-2.002277 3.282731,-2.520116 0.0068,-13.648851 0.01345,-27.297701 0.01985,-40.946554 C 51.635082,53.226589 49.509291,50.015063 50.23427,46.961357 49.782162,45.928732 48.278032,45.353597 47.431697,44.465425 42.94589,40.704011 39.057229,36.259355 35.79406,31.405633 l -0.218362,0.117045 z" id="SvgjsPath1073" transform="scale(0.26458333)"></path>
  </g>
</svg><style>@media (prefers-color-scheme: light) { :root { filter: none; } }
@media (prefers-color-scheme: dark) { :root { filter: none; } }
</style></svg>